<?xml version="1.0" encoding="UTF-8"?>
<svg id="Layer_2" data-name="Layer 2" xmlns="http://www.w3.org/2000/svg" xmlns:xlink="http://www.w3.org/1999/xlink" viewBox="0 0 1975.13 351.93">
  <defs>
    <style>
      .cls-1 {
        fill: url(#linear-gradient);
      }

      .cls-2 {
        fill: #fff;
      }
    </style>
    <linearGradient id="linear-gradient" x1="163.65" y1="-10.45" x2="163.65" y2="325.45" gradientUnits="userSpaceOnUse">
      <stop offset="0" stop-color="#24c6ff"/>
      <stop offset="1" stop-color="#026dff"/>
    </linearGradient>
  </defs>
  <g id="Layer_1-2" data-name="Layer 1">
    <g>
      <g>
        <path class="cls-2" d="M401.91,63.41h96.82c41.03,0,72.45,30.13,72.45,70.21,0,33.02-21.8,58.67-52.58,66.36l59.31,84.63h-47.77l-55.78-82.39h-34.3v82.39h-38.15V63.41ZM440.06,99.31v69.57h57.71c19.56,0,34.3-15.07,34.3-34.94s-14.75-34.62-34.3-34.62h-57.71Z"/>
        <path class="cls-2" d="M574.84,202.86c0-48.73,37.51-85.6,87.52-85.6s87.52,36.87,87.52,85.6-37.83,85.6-87.52,85.6-87.52-36.87-87.52-85.6ZM712.69,202.86c0-28.85-21.48-50.97-50.33-50.97s-50.65,22.12-50.65,50.97,21.8,50.97,50.65,50.97,50.33-22.12,50.33-50.97Z"/>
        <path class="cls-2" d="M764.44,53.79l35.91,14.12v76.61c13.78-16.99,33.66-27.25,57.71-27.25,45.84,0,80.47,36.87,80.47,85.6s-34.62,85.6-80.47,85.6c-24.04,0-43.92-10.26-57.71-27.25v23.4h-35.91V53.79ZM901.33,202.86c0-28.85-21.48-50.97-50.33-50.97s-50.65,22.12-50.65,50.97,21.8,50.97,50.65,50.97,50.33-22.12,50.33-50.97Z"/>
        <path class="cls-2" d="M1313.49,351.93l-35.91-14.12v-76.61c-13.78,16.99-33.66,27.25-57.71,27.25-45.84,0-80.47-36.87-80.47-85.6s34.62-85.6,80.47-85.6c24.04,0,43.92,10.26,57.71,27.25v-23.4h35.91v230.82ZM1176.6,202.86c0,28.85,21.48,50.97,50.33,50.97s50.65-22.12,50.65-50.97-21.8-50.97-50.65-50.97-50.33,22.12-50.33,50.97Z"/>
        <path class="cls-2" d="M951.6,202.86c0-48.73,37.51-85.6,87.52-85.6s87.52,36.87,87.52,85.6-37.83,85.6-87.52,85.6-87.52-36.87-87.52-85.6ZM1089.46,202.86c0-28.85-21.48-50.97-50.33-50.97s-50.65,22.12-50.65,50.97,21.8,50.97,50.65,50.97,50.33-22.12,50.33-50.97Z"/>
        <path class="cls-2" d="M1338.24,225.3v-104.19h35.9v93.61c0,23.4,15.07,39.11,38.15,39.11,24.36,0,40.71-16.03,40.71-39.75v-92.97h35.91v163.5h-35.91v-20.2c-12.5,15.71-30.45,24.04-52.26,24.04-37.51,0-62.51-25.01-62.51-63.15Z"/>
        <path class="cls-2" d="M1506.62,202.86c0-48.73,34.31-85.6,80.47-85.6,24.04,0,43.92,10.26,57.38,27.25v-23.4h35.91v163.5h-35.91v-23.4c-13.46,16.99-33.34,27.25-57.38,27.25-46.16,0-80.47-36.87-80.47-85.6ZM1644.47,202.86c0-28.85-21.48-50.97-50.33-50.97s-50.65,22.12-50.65,50.97,21.48,50.97,50.65,50.97,50.33-22.12,50.33-50.97Z"/>
        <path class="cls-2" d="M1707.38,121.11h35.9v20.84c13.15-16.03,32.06-24.69,55.14-24.69,38.79,0,64.76,25.65,64.76,64.44v102.91h-35.9v-91.05c0-25.01-16.03-41.68-40.72-41.68-25.97,0-43.28,16.99-43.28,42.32v90.4h-35.9V121.11Z"/>
        <path class="cls-2" d="M1898.83,234.28v-80.47h-27.57v-32.7h16.67c8.34,0,12.83-4.49,12.83-12.83v-31.42h33.98v44.24h40.4v32.7h-40.4v74.7c0,14.42,8.98,23.08,24.04,23.08h16.35v33.02h-21.48c-35.58,0-54.82-17.95-54.82-50.33Z"/>
      </g>
      <path class="cls-1" d="M128.34,203.18c-13.72,0-24.84,11.12-24.84,24.84s11.12,24.83,24.84,24.83,24.83-11.12,24.83-24.83-11.12-24.84-24.83-24.84ZM327.31,145.77h-120.47l85.19-85.19-25.29-25.29-85.2,85.2V0h-35.77v120.47L60.58,35.28l-25.29,25.29,85.19,85.19H0v35.77h36.63c-9.1,13.23-14.44,29.24-14.44,46.48,0,45.35,36.9,82.25,82.25,82.25h118.42c45.35,0,82.25-36.9,82.25-82.25,0-17.24-5.34-33.25-14.44-46.48h36.64v-35.77ZM222.86,274.5h-118.42c-25.63,0-46.48-20.85-46.48-46.48s20.85-46.48,46.48-46.48h41.33s17.9,0,17.9,0h13.51s45.69,0,45.69,0c25.63,0,46.48,20.85,46.48,46.48s-20.85,46.48-46.48,46.48ZM198.96,203.18c-13.72,0-24.83,11.12-24.83,24.84s11.12,24.83,24.83,24.83,24.83-11.12,24.83-24.83-11.12-24.84-24.83-24.84Z"/>
    </g>
  </g>
</svg>